<?xml version="1.0" encoding="UTF-8" standalone="no"?>
<!DOCTYPE svg PUBLIC "-//W3C//DTD SVG 1.1//EN" "http://www.w3.org/Graphics/SVG/1.1/DTD/svg11.dtd">
<svg width="100%" height="100%" viewBox="0 0 1196 1196" version="1.1" xmlns="http://www.w3.org/2000/svg" xmlns:xlink="http://www.w3.org/1999/xlink" xml:space="preserve" xmlns:serif="http://www.serif.com/" style="fill-rule:evenodd;clip-rule:evenodd;stroke-linejoin:round;stroke-miterlimit:2;">
    <g id="Sfondo" transform="matrix(1.072266,0,0,1.072266,116,49)">
        <path d="M481.982,742.488C482.505,725.576 489.751,706.33 480.742,720.657C467.279,742.068 477.057,758.553 475.907,780.53C475.333,791.521 463.371,808.211 460.413,811.423C444.995,828.17 433.347,823.734 421.461,821.717C406.994,819.261 406.977,819.708 392.44,817.807C378.824,816.027 415.874,794.166 420.216,781.402C427.892,758.837 396.702,743.524 373.318,755.142C354.751,764.366 351.039,767.9 341.558,779.545C327.67,796.604 325.488,820.301 323.015,824.116C318.185,831.568 272.499,814.006 270.468,813.683C257.609,811.636 249.134,805.854 242.297,802.94C236.388,800.421 210.01,789.177 175.192,758.855C165.752,750.633 152.912,741.611 129.187,692.655C116.311,666.085 112.372,658.948 105.844,621.437C100.115,588.51 106.687,533.665 112.23,519.393C116.802,507.624 115.729,506.371 117.553,501.518C132.088,462.851 152.937,434.497 181.316,408.289C189.557,400.678 190.922,401.547 194.894,391.644C200.436,377.829 233.689,353.851 215.671,379.61C212.567,384.047 204.175,401.473 206.823,406.299C210.356,412.736 216.856,387.002 230.202,378.054C268.692,352.247 281.324,406.767 287.542,408.388C293.8,410.019 288.202,393.607 287.789,392.396C285.682,386.22 279.916,382.757 286.495,382.976C295.456,383.276 295.893,379.286 299.138,381.952C307.962,389.199 303.747,395.429 307.717,427.468C313.64,475.283 310.878,497.374 323.152,513.75C341.093,537.686 335.098,552.754 339.28,568.566C350.782,612.055 372.329,598.942 374.539,595.529C381.409,584.921 380.341,559.091 380.259,550.506C379.992,522.221 368.95,510.645 381.134,486.324C389.425,469.774 384.55,465.227 390.478,465.093C406.54,464.731 395.779,478.755 401.698,504.451C407.251,528.561 405.725,528.876 401.17,564.46C399.887,574.48 400.85,574.513 399.662,584.512C398.913,590.826 399.982,611.129 401.353,616.539C407.683,641.521 413.381,639.917 416.759,665.467C417.076,667.866 419.602,686.972 425.676,694.367C436.427,707.457 433.573,716.07 434.763,741.485C435.777,763.132 442.299,769.051 442.521,769.06C447.908,769.269 439.167,745.565 461.108,707.274C480.301,673.778 465.258,628.751 467.991,621.621C469.684,617.205 472.382,628.464 474.724,635.428C484.672,665.011 476.767,673.749 485.872,694.338C494.173,713.109 490.176,713.96 490.906,734.49C490.954,735.844 496.771,763.414 486.652,752.352C482.265,747.557 482.356,747.357 481.982,742.488L124.957,558.534C124.248,566.169 123.847,586.855 123.939,587.454C124.706,592.419 122.287,611.035 136.757,650.402C152.467,693.143 179.472,720.459 184.478,725.522C188.6,729.692 209.106,750.434 244.325,767.851C246.951,769.15 256.095,774.262 257.128,772.327C259.235,768.377 236.365,759.551 224.544,748.451C219.222,743.454 218.259,744.446 203.415,727.575C179.795,700.73 167.172,674.292 157.545,650.481C152.046,636.878 142.467,600.444 142.211,592.522C140.283,532.903 148.306,504.809 150.402,497.47C154.498,483.126 157.769,466.205 171.18,447.283C174.146,443.099 170.857,443.551 170.617,443.712C170.46,443.817 156.295,461.588 149.289,475.391C143.779,486.246 137.426,494.817 128.89,531.58C127.494,537.588 125.219,556.371 124.957,558.534L481.982,742.488L360.951,734.743C356.821,742.441 347.997,761.669 358.373,753.338C366.542,746.779 371.76,749.094 374.29,740.438C375.065,737.788 375.171,726.533 395.844,710.953C408.794,701.193 426.347,699.404 418.661,697.155C413.49,695.642 386.793,697.585 364.899,728.777C364.57,729.246 364.611,729.262 360.951,734.743L481.982,742.488L448.716,789.911C421.44,804.316 434.584,811.781 436.536,812.393C440.748,813.712 447.604,809.782 444.593,808.379C442.037,807.189 440.38,806.73 442.975,802.813C450.359,791.667 467.126,788.1 461.53,786.438C457.548,785.257 449.655,789.416 448.716,789.911L481.982,742.488Z" style="fill:rgb(253,252,2);fill-opacity:1;"/>
        <path d="M264.028,918.503C263.83,952.169 263.884,995.389 279.57,1005.381C285.769,1009.331 291.429,994.444 291.605,986.501C291.716,981.447 292.61,981.561 292.387,976.504C292.291,974.344 293.053,974.375 293.248,949.496C293.252,949.088 294.45,912.056 296.463,902.492C300.664,882.533 316.009,853.469 326.07,872.714C328.824,877.982 319.231,878.136 317.541,885.511C316.724,889.077 310.13,900.713 306.914,969.521C305.012,1010.206 301.215,1014.543 293.342,1019.238C280.258,1027.04 259.932,1015.442 253.441,982.513C250.763,968.925 251.138,947.602 249.838,940.462C248.519,933.212 252.017,885.631 245.362,882.765C239.142,880.087 229.016,884.811 225.424,863.514C221.564,840.624 224.684,833.085 196.41,815.653C189.07,811.127 161.988,792.056 138.276,768.722C107.723,738.657 80.9,708.885 48.894,647.292C47.971,645.515 30.901,609.309 28.182,597.591C27.519,594.732 26.279,595.157 17.003,562.649C13.671,550.972 4.787,506.025 4.208,493.521C3.803,484.784 2.136,478.887 2.391,465.502C2.546,457.422 0.38,452.606 2.104,434.475C3.101,423.985 1.676,423.963 3.199,413.476C3.476,411.568 2.314,411.489 5.316,389.473C21.738,269.024 78.031,195.914 105.922,160.852C108.372,157.772 129.464,134.4 135.596,129.617C153.301,115.808 160.625,124.772 160.771,129.474C162.003,169.191 158.985,186.545 158.134,191.433C150.808,233.548 167.605,272.465 180.731,251.618C191.607,234.343 182.86,150.909 186.407,136.482C186.997,134.079 193.795,106.426 209.344,115.714C212.188,117.413 213.208,129.907 215.631,123.572C225.662,97.353 209.7,90.456 228.859,62.756C239.401,47.516 312.376,20.408 345.507,14.54C353.259,13.167 360.459,10.475 383.46,7.075C421.333,1.478 421.448,3.064 433.498,2.467C438.849,2.202 438.804,1.567 461.494,1.946C497.773,2.551 564.703,12.158 623.573,39.345C633.473,43.916 636.625,44.526 648.687,51.168C661.941,58.465 662.455,57.477 678.399,67.652C681.847,69.853 689.407,71.892 681.383,76.296C673.168,80.804 672.411,79.592 664.302,74.833C620.765,49.281 594.117,41.057 587.651,39.061C576.937,35.754 510.879,11.394 421.518,15.998C415.517,16.307 385.247,19.478 370.511,22.552C367.039,23.276 363.177,23.706 362.535,23.778C356.05,24.499 332.257,31.755 329.441,30.627C325.176,28.918 317.848,15.597 299.082,39.126C294.326,45.088 279.804,47.333 246.699,64.882C236.172,70.463 232.534,71.921 231.526,107.501C231.284,116.045 231.57,139.233 218.74,146.958C214.176,149.706 205.853,149.171 200.788,139.291C194.18,126.402 201.727,175.509 199.729,223.51C199.403,231.334 196.422,258.321 189.368,269.415C179.319,285.221 152.041,287.574 145.242,254.557C138.064,219.705 154.916,153.935 150.033,137.631C148.255,131.696 127.467,156.017 106.613,181.588C104.537,184.135 96.81,193.611 83.069,215.235C56.96,256.324 41.413,299.837 38.656,307.555C27.476,338.847 28.578,339.111 21.688,371.54C11.705,418.533 7.757,498.814 36.919,583.366C38.042,586.621 46.223,610.343 52.709,623.405C54.534,627.081 53.583,627.648 60.744,640.375C63.053,644.479 66.154,652.936 85.846,684.282C87.694,687.224 96.216,699.438 97.13,700.748C103.756,710.245 104.408,709.661 110.935,719.182C111.704,720.303 112.19,719.89 121.968,732.095C128.89,740.736 167.597,781.631 205.78,806.072C235.951,825.385 234.702,828.593 238.189,854.537C238.957,860.252 238.815,862.214 244.485,861.396C255.317,859.835 258.173,868.944 259.944,874.357C260.201,875.141 263.288,881.68 264.028,918.503Z" style="fill:rgb(247,247,9);fill-opacity:0.99;"/>
        <path d="M531.479,446.006C522.168,446.617 511.193,453.69 509.953,456.741C505.342,468.083 515.779,489.793 499.427,494.205C496.699,494.942 483.628,492.732 488.188,473.444C489.143,469.405 492.447,457.681 480.451,453.66C474.629,451.709 467.666,452.557 466.237,458.418C463.596,469.247 459.194,504.892 459.5,527.5C460.087,570.941 458.119,570.814 450.573,610.516C445.538,636.998 452.879,636.992 452.728,658.501C452.522,687.872 451.025,696.239 447.493,697.481C442.353,699.289 442.244,693.074 438.146,682.63C431.614,665.982 431.948,651.679 425.268,633.586C423.38,628.473 418.257,616.47 416.513,598.499C416.02,593.421 417.403,588.458 416.344,573.501C415.936,567.738 422.557,515.412 418.529,499.493C418.171,498.08 412.42,461.336 412.237,458.524C411.316,444.362 405.476,442.693 378.511,444.65C371.421,445.164 367.582,443.65 367.654,454.499C367.773,472.5 367.824,472.638 363.143,485.367C355.861,505.164 373.522,555.968 369.795,570.563C367.5,579.547 357.223,582.492 353.022,564.59C349.125,547.988 348.864,522.796 341.299,511.624C326.998,490.506 323.484,490.913 323.291,461.501C322.944,408.961 324.215,408.474 316.516,387.493C314.274,381.382 313.934,378.513 320.489,378.824C330.417,379.295 330.663,379.923 339.621,375.75C348.622,371.558 348.877,376.577 385.441,380.996C397.451,382.447 406.15,387.633 414.292,389.983C420.386,391.742 423.349,397.266 440.403,392.132C464.355,384.922 465.765,401.63 511.489,399.272C530.1,398.312 530.044,398.097 548.484,395.391C550.818,395.049 583.51,392.904 580.749,402.572C579.238,407.861 567.674,416.224 558.995,435.717C553.002,449.176 549.333,445.631 531.479,446.006Z" style="fill:rgb(252,252,3);fill-opacity:1;"/>
        <path d="M650.033,419.523C648.916,407.739 648.921,404.794 648.923,403.51C648.932,397.27 650.605,397.667 656.476,395.439C663.445,392.793 671.31,387.686 674.581,386.994C677.213,386.437 687.928,398.502 698.66,392.836C708.66,387.556 710.241,381.427 713.235,372.417C715.829,364.613 739.636,360.044 755.441,365.657C776.666,373.194 777.81,397.606 777.765,400.503C777.389,424.585 760.404,433.95 753.509,453.503C749.241,465.607 741.426,464.491 734.392,479.455C732.922,482.584 730.576,487.574 730.557,522.501C730.54,554.48 719.691,571.467 714.491,573.479C700.816,578.772 705.908,549.07 706.039,547.463C706.177,545.78 706.894,536.983 708.464,526.494C708.725,524.748 711.317,507.428 706.489,504.515C696.739,498.633 691.103,521.26 691.311,525.509C691.509,529.568 690.271,529.43 690.418,533.498C690.565,537.556 689.508,537.43 689.552,541.502C689.615,547.42 688.545,550.926 687.841,554.554C686.379,562.082 686.325,561.997 684.548,569.512C673.766,615.086 666.638,616.82 658.488,651.497C648.079,695.783 649.941,696.102 649.725,703.507C648.333,751.08 654.5,785.607 637.347,792.095C621.705,798.012 628.107,765.828 629.059,758.461C637.737,691.303 632.528,689.295 635.229,660.473C636.558,646.295 638.245,646.19 634.993,632.396C626.867,597.931 655.161,564.322 648.712,526.455C644.091,499.322 640.255,494.928 648.427,465.479C650.76,457.075 650.314,457.051 650.577,448.502C650.888,438.37 650.381,438.374 650.476,437.499C651.458,428.528 650.266,428.582 650.033,419.523L694.009,443.5C693.435,478.221 684.223,482.775 689.435,481.342C691.405,480.8 689.025,478.538 705.176,461.221C705.666,460.696 717.975,441.909 719.079,440.224C733.011,418.959 737.543,407.562 727.395,400.675C717.013,393.629 694.211,429.821 693.929,437.524C693.929,437.524 694.003,443.022 694.009,443.5L650.033,419.523Z" style="fill:rgb(252,252,4);fill-opacity:1;"/>
        <path d="M515.003,353.504C515.044,387.26 497.043,387.508 491.535,373.486C484.702,356.089 498.379,307.163 498.568,296.501C498.64,292.457 507.116,260.213 502.827,254.281C492.999,240.683 498.921,239.057 498.464,222.499C498.392,219.899 499.599,220.107 499.514,217.5C499.501,217.118 501.437,188.778 503.296,179.459C505.613,167.851 511.925,145.145 501.097,161.223C484.271,186.206 494.598,242.095 481.851,257.836C477.81,262.827 472.664,258.678 472.436,255.513C471.966,248.963 471.256,248.98 472.237,242.475C473.063,236.995 471.583,236.945 472.739,231.537C473.065,230.012 474.661,211.938 474.024,205.523C471.943,184.576 463.24,150.163 462.256,149.858C460.961,149.457 459.789,150.028 459.001,166.483C457.019,207.905 477.6,233.214 452.768,293.614C445.79,310.588 447.937,311.105 447.203,329.484C446.084,357.525 440.458,356.51 438.431,355.637C435.322,354.299 430.118,331.997 437.662,302.547C443.614,279.307 443.43,278.902 440.463,270.513C435.786,257.292 436.911,241.051 437.089,238.48C438.659,215.823 444.77,195.461 432.289,176.625C422.489,161.835 424.704,139.617 426.946,121.555C428.257,110.992 434.611,113.307 437.811,101.586C444.864,75.753 442.262,51.779 444.417,40.487C444.896,37.976 442.982,28.967 451.5,29.398C458.617,29.757 458.679,28.42 465.559,30.21C470.072,31.384 503.407,34.332 481.816,49.923C474.204,55.42 478.126,57.226 478.468,60.503C479.237,67.869 468.327,71.922 473.655,102.471C475.296,111.875 481.095,150.452 486.102,143.21C487.381,141.36 486.082,140.808 497.806,117.653C520.599,72.634 502.555,63.572 503.322,46.492C503.508,42.352 504.162,39.614 521.534,41.2C532.736,42.223 541.145,49.285 552.261,55.925C557.241,58.9 556.759,60.05 555.827,78.523C555.346,88.06 541.179,114.624 539.443,138.497C538.542,150.884 516.418,172.875 522.474,200.507C524.447,209.508 525.385,209.3 525.978,218.476C526.231,222.389 527.814,246.847 525.355,267.489C524.928,271.074 525.627,271.102 524.691,274.538C524.542,275.083 524.9,275.105 523.457,281.489C521.5,290.148 517.482,288.187 514.87,296.601C512.125,305.445 513.477,316.206 515.003,353.504Z" style="fill:rgb(250,250,5);fill-opacity:0.99;"/>
        <path d="M594.952,335.522C594.049,347.76 595.318,347.891 593.804,352.569C593.408,353.793 594.707,353.953 591.3,368.445C589.771,374.951 584.462,383.057 576.813,375.197C563.764,361.789 581.977,324.46 570.173,316.962C554.622,307.085 552.447,297.055 546.332,245.521C544.937,233.764 549.143,204.294 544.546,201.437C540.51,198.929 533.829,196.097 542.409,171.469C548.45,154.132 552.71,150.787 554.55,132.509C554.683,131.185 558.059,116.828 558.378,115.468C559.136,112.245 565.261,91.651 573.202,84.194C578.613,79.112 583.08,72.738 599.573,80.351C600.349,80.709 600.978,80.999 607.669,87.31C623.266,102.021 628.711,132.975 626.701,152.523C624.165,177.188 623.231,177.368 626.483,189.505C634.739,220.316 626.275,229.778 626.617,252.5C626.677,256.493 623.083,277.318 618.184,289.375C612.988,302.165 609.978,305.763 609.266,321.49C609.123,324.631 610.059,328.257 606.659,330.838C606.18,331.201 604.264,332.656 599.522,328.473C594.939,324.43 595.206,331.222 594.952,335.522L572.008,183.47C571.422,199.302 569.8,211.275 581.524,215.429C586.765,217.286 592.573,209.602 593.662,205.554C594.001,204.295 594.213,203.508 596.425,189.49C596.639,188.133 596.1,176.711 596.553,165.498C596.696,161.953 595.546,162.111 595.616,158.501C595.78,149.978 584.307,108.27 579.68,120.55C579.17,121.904 580.401,142.42 576.059,160.397C573.289,171.861 573.226,171.782 572.008,183.47L594.952,335.522Z" style="fill:rgb(252,252,3);fill-opacity:0.99;"/>
        <path d="M292.028,193.493C289.498,258 280.518,262.006 289.705,269.229C294.357,272.886 301.799,265.356 321.337,272.921C323.593,273.795 328.045,276.619 332.549,273.556C333.421,272.964 335.289,271.693 334.379,260.511C334.129,257.437 333.534,257.588 333.507,254.5C333.501,253.904 332.699,248.965 332.621,248.485C330.2,233.588 328.133,234.354 323.902,229.174C318.277,222.286 322.318,221.228 331.65,181.537C332.067,179.765 332.106,171.823 336.536,173.414C340.022,174.666 340.808,186.509 341.906,191.413C345.216,206.199 343.907,206.321 344.406,211.508C344.937,217.029 345.511,216.94 345.244,222.492C344.859,230.482 350.516,253.889 351.166,256.579C360.222,294.05 358.348,300.785 366.658,311.384C378.754,326.811 370.58,332.939 362.505,331.476C353.809,329.901 339.503,324.267 338.869,334.52C338.287,343.932 338.437,370.141 320.614,359.29C306.717,350.829 331.654,310.199 304.449,321.382C289.399,327.568 301.679,343.502 293.028,363.297C287.962,374.889 277.155,371.218 273.75,367.293C264.884,357.073 273.499,314.335 262.87,328.77C262.222,329.65 254.408,340.264 250.837,335.237C247.784,330.939 258.109,297.012 260.076,271.467C265.205,204.875 258.228,204.872 259.085,183.491C259.546,171.987 266.384,133.843 256.803,112.363C250.167,97.487 268.98,96 278.132,84.212C286.787,73.065 283.193,70.376 303.39,49.396C304.312,48.438 326.27,25.628 319.709,52.547C316.194,66.972 313.25,66.558 313.8,86.484C314.003,93.849 319.439,109.999 310.796,126.653C303.744,140.242 310.245,168.836 303.442,171.368C298.016,173.387 293.355,160.158 292.611,167.519C292.163,171.961 292.172,171.934 292.028,193.493Z" style="fill:rgb(250,250,4);fill-opacity:1;"/>
        <path d="M646.995,296.511C647.065,293.468 647.1,293.545 647.133,290.492C647.378,267.7 640.761,267.55 642.381,257.483C647.861,223.438 652.564,223.276 645.696,186.459C641.721,165.151 644.128,165.06 645.733,143.516C647.334,122.025 635.173,107.747 639.65,104.832C644.084,101.945 646.483,109.185 667.745,96.951C683.363,87.965 679.425,113.196 682.903,138.452C685.44,156.877 700.867,165.223 703.582,166.276C704.986,166.82 709.758,168.672 712.057,149.472C716.16,115.206 701.415,101.278 700.715,90.494C700.229,83.016 719.903,87.081 734.21,78.035C746.928,69.994 747.681,92.296 748.068,115.511C748.493,141.055 751.122,144.806 751.217,153.505C751.303,161.351 744.726,194.405 744.363,195.454C738.384,212.725 733.663,232.07 726.871,243.715C714.06,265.68 712.689,267.423 706.215,312.463C704.876,321.78 705.891,326.264 705.197,331.466C704.264,338.47 705.129,338.482 704.501,345.5C702.602,366.748 699.32,370.044 694.306,374.263C693.098,375.28 676.952,384.326 684.037,357.393C692.908,323.676 688.676,323.2 688.208,304.506C688.028,297.306 686.902,297.529 685.959,290.447C681.473,256.754 709.577,227.369 699.107,206.692C698.7,205.889 691.674,194.339 691.185,193.767C687.629,189.607 676.727,175.689 676.441,175.672C670.818,175.328 680.932,205.998 669.99,253.592C661.844,289.024 663.942,289.378 663.191,292.443C661.259,300.333 662.89,300.429 662.511,308.501C660.574,349.755 662.191,349.935 658.583,366.522C655.938,378.685 643.584,387.114 639.974,371.411C635.742,352.998 647.129,340.36 646.995,296.511Z" style="fill:rgb(250,250,5);fill-opacity:0.99;"/>
        <path d="M525.966,756.514C525.899,758.191 525.309,772.763 523.099,777.297C521.333,780.922 512.569,783.35 514.275,768.481C515.02,761.994 514.166,761.964 515.163,755.47C515.399,753.927 514.741,748.433 513.186,746.793C508.423,741.765 504.274,742.042 505.332,728.485C506.623,711.941 507.558,712.004 506.306,695.517C505.794,688.773 507.336,685.417 501.635,683.116C491.781,679.137 500.473,653.829 489.264,628.609C475.487,597.609 475.441,596.818 478.831,564.541C484.019,515.135 474.271,496.007 481.467,498.652C483.706,499.475 485.916,505.932 495.503,505.71C496.454,505.688 501.307,504.471 501.75,508.456C501.999,510.697 504.761,535.523 506.611,536.22C508.068,536.769 507.764,535.481 523.189,526.015C524.045,525.489 538.708,512.968 540.054,511.14C542.377,507.984 557.447,490.38 545.81,482.049C533.658,473.348 519.203,492.788 520.596,483.511C521.869,475.036 521.921,475.1 522.267,466.489C522.491,460.919 527.79,462.433 537.52,460.619C544.46,459.325 546.181,461.57 560.678,454.889C564.189,453.271 565.929,451.852 566.948,456.405C569.389,467.311 567.982,467.732 573.015,477.746C587.914,507.393 563.659,537.703 560.895,542.72C555.078,553.275 556.473,562.4 546.852,555.088C544.553,553.341 542.547,542.206 529.733,553.767C526.578,556.614 509.648,574.576 512.677,578.381C515.164,581.503 528.764,579.2 542.778,566.884C546.951,563.216 551.108,573.444 559.442,565.437C560.041,564.862 566.997,558.178 569.628,567.462C571.734,574.896 566.952,575.843 573.567,602.485C574.547,606.432 577.025,624.617 575.547,631.51C572.842,644.125 568.508,647.96 571.994,666.427C572.221,667.629 572.246,667.597 574.934,681.437C584.609,731.257 567.364,744.47 572.726,783.467C576.415,810.291 562.807,817.884 556.253,807.641C551.79,800.668 557.083,774.31 557.327,771.479C558.085,762.666 569.747,723.578 553.053,681.672C538.882,646.101 552.032,628.903 542.256,613.663C536.16,604.159 529.66,621.901 520.834,613.162C519.543,611.884 513.652,604.199 510.819,605.994C506.734,608.583 517.426,624.305 519.967,645.454C522.18,663.87 518.915,664.107 521.569,677.488C521.774,678.52 521.591,678.526 523.507,690.499C524.071,694.019 523.487,694.007 524.221,697.545C525.25,702.505 524.118,702.581 525.289,707.532C525.657,709.086 525.313,709.112 525.992,727.484C526.539,742.249 526.367,746.766 525.966,756.514Z" style="fill:rgb(250,250,6);fill-opacity:0.99;"/>
        <path d="M431.021,44.479C429.149,96.424 423.467,95.919 423.205,96.174C411.476,107.653 416.105,75.513 406.486,74.601C401.355,74.115 402.672,94.611 394.56,91.366C392.373,90.491 391.452,84.658 388.768,86.878C388.075,87.452 388.193,87.45 380.599,94.604C378.432,96.645 378.138,96.922 375.915,131.518C375.616,136.165 378.301,134.497 382.222,132.016C394.518,124.237 405.665,106.792 407.42,113.526C408.881,119.133 403.616,119.537 400.312,137.47C399.53,141.715 395.277,155.073 394.794,156.59C394.641,157.07 390.661,165.554 385.835,156.328C385.38,155.46 382.851,146.578 376.759,154.687C375.792,155.975 373.112,159.542 373.13,174.492C373.134,178.121 375.325,202.16 376.797,204.314C380.108,209.158 383.39,206.615 403.735,220.121C407.123,222.37 418.962,218.155 420.125,196.489C420.161,195.816 420.532,188.898 422.471,188.403C431.48,186.105 417.807,236.2 424.529,270.494C429.414,295.416 423.207,299.705 421.18,301.106C417.051,303.959 414.968,302.49 414.418,307.491C414.119,310.209 412.815,310.125 413.899,316.456C414.143,317.88 414.472,319.8 414.652,334.502C414.708,339.066 413.605,338.939 413.656,343.51C413.664,344.259 411.692,353.24 411.249,354.41C409.896,357.984 406.894,366.976 400.427,363.631C397.641,362.19 396.269,358.444 396.18,356.535C395.533,342.757 398.39,341.554 393.55,337.44C390.111,334.517 391.421,329.648 391.301,322.497C390.765,290.617 407.983,274.641 390.22,255.768C384.401,249.587 384.183,249.644 383.488,249.826C379.583,250.85 387.089,281.743 377.26,288.152C375.741,289.142 371.096,289.026 370.199,283.562C365.507,254.984 364.352,255.234 360.26,226.541C358.492,214.144 355.264,206.337 355.138,202.517C354.491,182.998 353.773,182.966 347.944,170.272C342.583,158.595 349.239,150.505 341.349,123.548C337.127,109.124 344.666,107.242 331.91,79.301C326.486,67.42 331.318,65.63 353.327,58.04C389.92,45.419 390.673,46.759 407.816,34.947C409.847,33.548 425.246,23.73 429.44,23.142C438.635,21.852 431.42,34.95 431.157,40.478C431.094,41.811 431.085,43.146 431.021,44.479Z" style="fill:rgb(250,250,5);fill-opacity:0.99;"/>
        <path d="M525.036,889.53C524.895,888.182 524.812,886.828 524.672,885.479C523.138,870.813 506.422,900.454 504.4,893.548C498.716,874.129 525.753,859.664 534.21,874.677C539.543,884.144 535.483,920.575 549.418,923.843C564.056,927.275 565.046,895.448 566.009,886.458C568.582,862.444 571.484,862.036 582.596,857.765C613.079,846.051 612.991,845.98 615.646,844.985C636.503,837.165 671.902,816.738 677.785,812.931C695.987,801.155 823.089,724.391 866.012,549.396C874.029,516.713 872.012,516.371 872.727,513.542C874.116,508.035 875.227,495.098 875.366,493.486C875.448,492.526 876.148,484.381 876.614,481.516C878.855,467.767 880.709,399.399 866.13,344.588C855.712,305.422 854.562,305.812 846.917,285.335C835.349,254.35 813.259,216.408 792.138,188.762C784.591,178.884 784.583,178.956 776.676,169.354C767.237,157.893 764.254,158.303 765.339,143.487C765.878,136.119 769.539,140.858 770.347,141.656C783.085,154.225 801.087,178.127 803.582,181.439C877.278,279.285 903.811,403.598 887.245,508.455C884.337,526.856 884.752,526.902 884.351,528.469C884.207,529.031 882.9,534.134 882.707,535.531C880.776,549.492 868.638,590.467 865.915,597.654C849.505,640.975 844.676,649.827 829.723,675.626C823.274,686.751 822.854,686.394 816.062,697.238C798.381,725.469 761.406,765.398 737.124,785.046C732.899,788.466 704.95,811.08 682.271,825.144C634.191,854.959 601.587,864.987 586.56,870.636C575.791,874.685 582.614,908.569 571.148,925.241C569.53,927.594 561.43,934.461 560.268,935.116C548.992,941.471 528.356,949.649 525.036,889.53Z" style="fill:rgb(247,247,10);fill-opacity:0.99;"/>
        <path d="M627.002,500.51C626.682,516.287 635.757,525.123 631.894,557.54C628.32,587.531 622.953,586.187 615.801,615.568C612.401,629.54 615.97,641.473 616.84,672.495C616.994,678.005 624.247,729.381 620.769,744.544C620.508,745.684 621.182,767.251 608.507,768.572C597.034,769.768 593.347,744.955 594.289,734.482C595.007,726.506 595.784,719.241 595.527,715.498C595.384,713.421 599.943,687.563 599.185,670.53C598.898,664.09 589.808,660.116 589.162,652.555C587.489,632.993 595.286,619.776 589.112,599.611C587.817,595.382 584.688,595.585 586.229,550.477C586.624,538.908 596.058,521.879 595.381,506.502C595.097,500.034 598.923,485.041 585.199,458.659C581.753,452.035 581.973,448.747 581.021,433.532C580.585,426.567 580.411,426.146 585.548,420.544C592.159,413.334 589.872,403.205 599.452,401.299C627.216,395.775 634.788,386.798 634.683,397.502C634.297,437.138 634.756,437.066 634.714,440.506C634.377,468.546 626.654,481.762 627.002,500.51Z" style="fill:rgb(250,250,5);fill-opacity:1;"/>
        <path d="M406.001,778.507C405.211,785.608 404.511,785.769 387.712,800.732C385.749,802.481 378.533,811.479 375.975,816.718C371.881,825.102 367.355,849.599 377.454,852.627C390.956,856.676 405.336,854.106 410.174,881.547C410.551,883.689 411.423,908.091 394.416,916.323C370.793,927.758 337.673,916.332 343.47,879.496C346.627,859.434 358.219,859.689 355.721,857.246C352.617,854.211 342.843,870.698 337.883,860.32C331.65,847.28 333.832,840.205 333.383,831.497C333.282,829.544 336.729,795.547 357.741,778.791C359.05,777.747 386.505,752.671 402.206,768.771C405.329,771.974 405.916,777.676 406.001,778.507L351.015,886.516C351.2,888.027 352.399,897.811 359.457,903.567C361.692,905.39 361.814,902.729 361.755,902.492C361.386,901.006 356.073,894.25 363.227,880.364C372.658,862.057 383.459,865.934 379.353,862.692C376.179,860.187 351.912,862.548 351.015,886.516L406.001,778.507Z" style="fill:rgb(250,250,5);fill-opacity:1;"/>
        <path d="M485.073,875.506C486.084,882.617 488.911,890.184 476.31,902.302C474.591,903.955 464.832,915.984 444.294,905.972C419.283,893.779 428.823,861.979 440.601,855.684C460.598,844.996 470.764,858.026 471.377,854.483C472.036,850.675 464.368,853.503 463.377,839.509C462.612,828.697 460.914,827.31 465.78,822.792C481.822,807.897 478.627,800.266 482.762,796.794C485.34,794.629 491.923,806.219 493.544,812.488C503.566,851.237 486.545,858.977 485.073,875.506L442.081,886.489C442.222,885.189 443.046,877.562 448.405,871.42C454.671,864.238 454.527,863.771 463.534,860.544C464.875,860.064 464.553,857.873 459.492,858.341C425.304,861.503 436.658,890.561 440.592,892.141C442.811,893.031 442.105,887.143 442.081,886.489L485.073,875.506Z" style="fill:rgb(249,249,7);fill-opacity:1;"/>
        <path d="M237.008,332.536C237.723,342.454 244.848,349.71 241.173,353.131C238.026,356.06 240.289,347.309 225.191,328.731C220.691,323.194 206.606,300.604 221.604,292.689C239.135,283.439 240.5,286.916 240.723,288.467C241.884,296.538 234.092,305.099 237.008,332.536Z" style="fill:rgb(246,246,11);fill-opacity:0.99;"/>
    </g>
</svg>
